<?xml version="1.0" standalone="no"?>
<!DOCTYPE svg PUBLIC "-//W3C//DTD SVG 20010904//EN"
 "http://www.w3.org/TR/2001/REC-SVG-20010904/DTD/svg10.dtd">
<svg version="1.0" xmlns="http://www.w3.org/2000/svg"
 width="1200.000000pt" height="1200.000000pt" viewBox="0 0 1200.000000 1200.000000"
 preserveAspectRatio="xMidYMid meet">
<metadata>
Created by potrace 1.14, written by Peter Selinger 2001-2017
</metadata>
<g transform="translate(0.000000,1200.000000) scale(0.100000,-0.100000)"
fill="#000000" stroke="none">
<path d="M1377 10644 c-1 -1 -21 -4 -44 -8 -178 -24 -361 -114 -497 -245 -140
-135 -217 -276 -273 -496 -4 -16 -9 -1648 -10 -3625 -2 -3518 -2 -3597 17
-3676 47 -201 129 -345 275 -487 118 -114 325 -214 485 -235 30 -4 2163 -7
4740 -7 l4685 0 82 22 c363 97 629 390 685 754 19 120 17 7153 -1 7244 -58
285 -222 514 -463 649 -68 37 -215 90 -288 102 -37 6 -9386 14 -9393 8z m9326
-753 c46 -28 83 -76 92 -120 11 -53 8 -7022 -3 -7052 -14 -36 -59 -87 -96
-107 -29 -16 -314 -17 -4648 -18 l-4617 -1 -43 22 c-26 13 -55 39 -73 66 l-30
44 0 3530 c0 3493 0 3530 20 3560 28 43 71 78 110 90 22 7 1598 10 4642 10
l4608 -1 38 -23z"/>
<path d="M3032 9178 c-272 -22 -502 -128 -692 -318 -240 -240 -354 -562 -317
-900 9 -88 13 -108 43 -203 55 -174 142 -317 273 -447 178 -177 379 -276 636
-315 44 -7 246 -7 285 0 185 31 321 84 466 180 447 298 611 894 378 1380 -103
216 -289 407 -499 513 -44 22 -245 94 -245 87 0 -2 -14 0 -31 5 -30 9 -122 20
-184 24 -16 0 -67 -2 -113 -6z"/>
<path d="M6223 6802 l-1461 -1464 -456 456 c-251 251 -457 456 -460 456 -2 0
-415 -411 -917 -913 l-914 -914 1 -534 c1 -294 2 -541 3 -549 1 -13 455 -15
4023 -15 l4023 0 3 1281 2 1281 -1190 1189 c-655 654 -1191 1189 -1193 1189
-1 0 -660 -659 -1464 -1463z"/>
</g>
</svg>
